<?xml version="1.0" encoding="UTF-8" standalone="no"?>
<!DOCTYPE svg PUBLIC "-//W3C//DTD SVG 1.1//EN" "http://www.w3.org/Graphics/SVG/1.1/DTD/svg11.dtd">
<svg version="1.1" xmlns="http://www.w3.org/2000/svg" xmlns:xlink="http://www.w3.org/1999/xlink" preserveAspectRatio="xMidYMid meet" viewBox="0 0 640 640" width="640" height="640"><defs><path d="M610 320C610 480.06 480.06 610 320 610C159.94 610 30 480.06 30 320C30 159.94 159.94 30 320 30C480.06 30 610 159.94 610 320Z" id="botrB03dh"></path><path d="M640 320C640 333.2 640 341.44 640 344.74C640 507.81 507.81 640 344.74 640C298.78 640 183.86 640 0 640C0 626.8 0 618.56 0 615.26C0 452.19 132.19 320 295.26 320C341.22 320 456.14 320 640 320Z" id="a1AlaYACQg"></path><path d="M640 320L320 320L320 0C372.43 0 405.2 0 418.31 0C540.75 0 640 99.25 640 221.69C640 234.8 640 267.57 640 320Z" id="g17uyN66pY"></path></defs><g><g><g><use xlink:href="#botrB03dh" opacity="1" fill="#3d619c" fill-opacity="1"></use></g><g><use xlink:href="#a1AlaYACQg" opacity="1" fill="#5b9dde" fill-opacity="1"></use></g><g><use xlink:href="#g17uyN66pY" opacity="1" fill="#8ec7ff" fill-opacity="1"></use></g></g></g></svg>